<?xml version="1.0" encoding="UTF-8"?>
<svg version="1.1" xmlns="http://www.w3.org/2000/svg" width="572" height="588">
<path d="M0 0 C3.69882149 0.01153191 7.39753611 -0.00625476 11.0963347 -0.01989961 C18.30504824 -0.04190888 25.51349869 -0.03743195 32.72222173 -0.0228364 C38.59099673 -0.01145495 44.459699 -0.01005128 50.32848191 -0.01545548 C51.16991249 -0.01622165 52.01134307 -0.01698781 52.87827155 -0.0177772 C54.58864894 -0.01937613 56.2990263 -0.02099721 58.00940365 -0.02264015 C73.97527479 -0.03683228 89.94100142 -0.02060833 105.90684885 0.00636168 C119.54893537 0.02869448 133.19080901 0.0248125 146.8328917 0.00176787 C162.74915216 -0.02510652 178.66528658 -0.03545959 194.58156657 -0.02017081 C196.28497559 -0.01857839 197.98838463 -0.01700652 199.69179368 -0.01545548 C200.94832771 -0.01429842 200.94832771 -0.01429842 202.23024628 -0.01311798 C208.07881867 -0.00883571 213.92730981 -0.01601164 219.77586961 -0.02785325 C226.92220095 -0.04200712 234.06825846 -0.03781219 241.2145592 -0.01144953 C244.84726091 0.00151832 248.47950938 0.00714086 252.11220574 -0.00969529 C297.71182892 -0.20294904 336.85775027 13.42165283 369.5101378 45.65362334 C384.59174499 60.71234494 395.78337107 79.21730383 403.3226378 99.09112334 C403.58850694 99.78053008 403.85437608 100.46993682 404.12830186 101.18023467 C405.01691218 103.64906241 405.76406197 106.13758961 406.5101378 108.65362334 C406.84443771 109.74558611 407.17873763 110.83754888 407.52316785 111.96260142 C411.59955528 126.69408991 411.09024412 141.77862448 411.04769552 156.92595208 C411.04062965 161.00586337 411.05675684 165.08569833 411.06969285 169.16558623 C411.09121666 177.13521518 411.09123587 185.10470069 411.08306731 193.07434908 C411.07673961 199.55926037 411.07792958 206.04413017 411.08433938 212.52904105 C411.08524104 213.45583579 411.08614269 214.38263053 411.08707167 215.33750996 C411.08892308 217.220951 411.09078564 219.10439203 411.09265923 220.98783305 C411.10919757 238.60738932 411.10055273 256.22686526 411.08367365 273.84641667 C411.06898408 289.92310691 411.08360171 305.99961012 411.11244381 322.07627628 C411.14192275 338.63277955 411.15278516 355.18919676 411.14326161 371.7457251 C411.14223919 373.62273616 411.14124457 375.49974724 411.1402781 377.37675834 C411.13980171 378.29999876 411.13932532 379.22323919 411.1388345 380.1744566 C411.13668136 386.64048494 411.14641557 393.10643078 411.16104913 399.57244086 C411.17867183 407.46856011 411.1783141 415.3644413 411.15569747 423.26055161 C411.14464402 427.27952781 411.14118703 431.29808617 411.15999818 435.31704307 C411.25025198 456.11283654 410.01954594 475.65133358 401.6976378 495.02862334 C401.3563585 495.84621123 401.0150792 496.66379912 400.66345811 497.50616241 C384.87436495 534.60835653 355.20833782 564.19943084 317.8460753 579.62627959 C316.25811893 580.24777258 314.66701271 580.86128652 313.0726378 581.46612334 C312.03852769 581.86492705 312.03852769 581.86492705 310.98352647 582.27178741 C308.51445957 583.16048381 306.02684079 583.90878349 303.5101378 584.65362334 C302.40113523 584.98792326 301.29213267 585.32222318 300.14952397 585.66665339 C285.83167112 589.58011499 271.30804224 589.23465894 256.5904969 589.19118106 C252.70690489 589.18410938 248.82339275 589.20024667 244.9398253 589.2131784 C237.35520972 589.2346928 229.77074491 589.23472387 222.18610891 589.22655285 C216.01393534 589.22022292 209.84180535 589.22141714 203.6696322 589.22782493 C202.78724324 589.22872658 201.90485428 589.22962824 200.99572626 589.23055721 C199.20247722 589.23240864 197.40922819 589.23427121 195.61597917 589.23614477 C178.84338344 589.25267986 162.0708721 589.2440411 145.29828147 589.22715919 C129.99757083 589.21247016 114.69705672 589.22708706 99.39637139 589.25592936 C83.63539583 589.28541503 67.87451067 589.29626875 52.11350876 589.28674716 C50.32636942 589.28572474 48.53923006 589.28473013 46.75209069 589.28376365 C45.87307603 589.28328726 44.99406137 589.28281087 44.0884099 589.28232004 C37.93496645 589.28016777 31.78160976 589.2898964 25.62818551 589.30453467 C18.11267925 589.3221658 10.5974231 589.32178789 3.08192619 589.29918302 C-0.74263179 589.28813696 -4.56675093 589.28465501 -8.39128852 589.30348372 C-28.78544416 589.39657445 -47.8954097 587.98787881 -66.8648622 579.84112334 C-67.68245009 579.49984405 -68.50003798 579.15856475 -69.34240127 578.80694366 C-107.20566347 562.69397275 -136.83831649 532.26986357 -152.29494107 494.09277844 C-160.75784195 472.24722215 -162.24532186 449.98863047 -162.14348555 426.8110733 C-162.1319682 422.91593285 -162.14973345 419.0208947 -162.16338515 415.12577605 C-162.18540924 407.53205138 -162.18091065 399.93857628 -162.16632195 392.34484255 C-162.15494652 386.16333022 -162.15353429 379.98188695 -162.15894103 373.80036712 C-162.1597072 372.91453076 -162.16047336 372.0286944 -162.16126274 371.11601451 C-162.16286166 369.31544513 -162.16448273 367.51487576 -162.1661257 365.71430641 C-162.18032217 348.90147614 -162.16408694 332.08878304 -162.13712387 315.27597529 C-162.11479067 300.90618393 -162.11867253 286.53659466 -162.14171767 272.16680694 C-162.16858426 255.40674486 -162.17894944 238.64680246 -162.16365635 221.88672185 C-162.16206391 220.09344111 -162.16049205 218.30016035 -162.15894103 216.50687957 C-162.15816965 215.62496445 -162.15739828 214.74304933 -162.15660352 213.83440951 C-162.15231895 207.6732521 -162.15950231 201.51217176 -162.1713388 195.3510263 C-162.18548384 187.8240829 -162.18131558 180.29739956 -162.15493508 172.77048528 C-162.14195583 168.94336565 -162.13636547 165.11667666 -162.15318084 161.28956199 C-162.33840939 115.19168665 -149.14983362 75.73959438 -116.4898622 42.65362334 C-84.81397228 10.92959377 -43.7842455 -0.20292313 0 0 Z " fill="#000000" transform="translate(161.48986220359802,-0.6536233425140381)"/>
<path d="M0 0 C1.17079102 0.16016602 2.34158203 0.32033203 3.54785156 0.48535156 C17.67907387 2.51023921 31.32612084 5.94178897 45 10 C45.74362793 10.2180127 46.48725586 10.43602539 47.25341797 10.66064453 C57.3512416 13.63853626 67.18760967 17.19346927 77 21 C77.94875 21.3609375 78.8975 21.721875 79.875 22.09375 C81.48904356 22.71919188 83.09541005 23.36499933 84.69140625 24.03515625 C86.32506192 24.71791928 87.98219365 25.34572059 89.65234375 25.93359375 C93.54570677 27.49436923 96.23000214 28.79478595 98.52734375 32.390625 C99.87778136 35.54883692 100.94765357 38.73046849 102 42 C102.45632813 43.19238281 102.91265625 44.38476562 103.3828125 45.61328125 C108.02233421 57.74694273 111.06610685 70.309802 114.20458984 82.89746094 C114.92857751 85.72141283 115.71477995 88.51858576 116.51953125 91.3203125 C119.85632157 103.49062495 121.55514273 116.07883263 123.30761719 128.55639648 C123.62736662 130.82932304 123.95395156 133.10119635 124.28125 135.37304688 C124.49258977 136.85931786 124.70354109 138.34564413 124.9140625 139.83203125 C125.0992041 141.13889893 125.2843457 142.4457666 125.47509766 143.79223633 C126.67284191 153.03242542 127.14214962 162.13326175 127.09765625 171.44921875 C127.0962413 172.58784866 127.09482635 173.72647858 127.09336853 174.89961243 C127.08782209 178.49560298 127.07527989 182.09152863 127.0625 185.6875 C127.05747807 188.14257722 127.05291638 190.59765542 127.04882812 193.05273438 C127.03787028 199.03517797 127.02118647 205.01758434 127 211 C123.43791942 209.61849857 120.13103061 208.02701177 116.78295898 206.18139648 C104.89406697 199.63800846 92.46539133 194.33629953 80 189 C79.93268677 187.31596069 79.93268677 187.31596069 79.86401367 185.59790039 C79.69097585 181.34606061 79.5026949 177.09499837 79.31030273 172.84399414 C79.22978564 171.02027394 79.15315064 169.1963773 79.08081055 167.37231445 C78.65152678 156.62245693 77.77604995 146.23417775 75.71118164 135.66967773 C75.12293833 132.63435838 74.62825753 129.62650247 74.2265625 126.5625 C73.06367051 117.71571252 71.45577886 109.34440505 68.77270508 100.82714844 C67.25798241 96.01193696 66.18037554 91.28874546 65.45703125 86.296875 C64.9396196 83.69654976 64.00196363 81.45095718 63 79 C62.60939751 77.50907286 62.25354002 76.00849353 61.9375 74.5 C61.78152344 73.7678125 61.62554687 73.035625 61.46484375 72.28125 C60.97052497 69.85534942 60.48306805 67.42816508 60 65 C59.31035156 64.82984375 58.62070312 64.6596875 57.91015625 64.484375 C53.23145139 63.27779542 48.80385337 62.02677661 44.4375 59.9375 C40.49004698 58.07987505 36.72798759 57.23870885 32.4453125 56.4921875 C30.13689167 56.02755327 28.08045354 55.37591823 25.875 54.5625 C14.99057063 50.80924849 3.08981536 49.65645298 -8.25 47.9375 C-9.30687012 47.77515869 -10.36374023 47.61281738 -11.45263672 47.44555664 C-28.62997396 44.90520986 -45.6385866 43.58506431 -63 43.625 C-64.41765656 43.62631424 -64.41765656 43.62631424 -65.86395264 43.62765503 C-105.88722994 43.74859277 -147.50129755 49.53704789 -185 64 C-186.8734426 64.69173265 -188.74847094 65.37918459 -190.625 66.0625 C-191.53894531 66.39636719 -192.45289063 66.73023437 -193.39453125 67.07421875 C-195.68887961 67.88945198 -197.99122377 68.64128792 -200.3125 69.375 C-210.52566681 72.75515841 -220.19621619 77.48211812 -229.74609375 82.38671875 C-231.91298499 83.46105979 -234.1142906 84.46862689 -236.34375 85.40625 C-259.30599442 95.41543346 -280.71894283 110.15944651 -300 126 C-300.6172998 126.50692383 -301.23459961 127.01384766 -301.87060547 127.53613281 C-305.62690697 130.63876167 -309.32545111 133.80103986 -313 137 C-313.82242188 137.71027344 -314.64484375 138.42054688 -315.4921875 139.15234375 C-326.22504229 148.60077494 -336.52779754 158.66685058 -345.36328125 169.92578125 C-347 172 -347 172 -349 174 C-349.52235733 180.26828798 -348.29904618 185.11737247 -346.25 191 C-344.28780266 196.88545188 -342.51742064 202.7036329 -341.125 208.75 C-337.30005192 224.60759725 -331.25393104 239.9582176 -325 255 C-324.59265625 256.00675781 -324.1853125 257.01351563 -323.765625 258.05078125 C-313.2596328 283.80410628 -299.42139411 308.38800966 -282.203125 330.28515625 C-281 332 -281 332 -281 334 C-280.34 334 -279.68 334 -279 334 C-278.9071875 333.44441406 -278.814375 332.88882812 -278.71875 332.31640625 C-275.97215877 323.46462038 -266.88532133 315.04331279 -261 308 C-264.50671916 302.41479498 -268.06659829 296.88030701 -271.76464844 291.42041016 C-276.24274019 284.79424956 -280.36934192 278.13743543 -284 271 C-284.30115723 270.41138184 -284.60231445 269.82276367 -284.91259766 269.21630859 C-287.3206389 264.49961319 -289.67066204 259.75597013 -292 255 C-292.31114746 254.3704541 -292.62229492 253.7409082 -292.94287109 253.09228516 C-297.41219695 244.01254717 -301.00742968 234.8031564 -304.23291016 225.21459961 C-305.10528862 222.6960302 -306.04018202 220.20395043 -306.97265625 217.70703125 C-309.04557155 212.02505304 -310.71079804 206.28411152 -312.25 200.4375 C-312.518125 199.47392578 -312.78625 198.51035156 -313.0625 197.51757812 C-317.0115664 182.57761518 -317.0115664 182.57761518 -313.87011719 176.99047852 C-312.27507735 175.02503269 -310.58708624 173.30333636 -308.75 171.5625 C-308.11392822 170.92417236 -307.47785645 170.28584473 -306.82250977 169.62817383 C-304.90729791 167.72346282 -302.95974323 165.85873601 -301 164 C-300.19248291 163.21544434 -300.19248291 163.21544434 -299.36865234 162.41503906 C-287.39096616 150.78133935 -273.86416948 141.22359908 -260 132 C-259.39414062 131.59313965 -258.78828125 131.1862793 -258.1640625 130.76708984 C-237.87348943 117.23819519 -215.67039586 106.84348154 -193 98 C-191.82244141 97.5364209 -191.82244141 97.5364209 -190.62109375 97.06347656 C-172.84316364 90.09496692 -154.55301173 85.41764234 -136 81 C-135.11425293 80.78811035 -134.22850586 80.5762207 -133.31591797 80.35791016 C-127.57711172 79.01583638 -121.81780125 77.9391747 -116 77 C-114.88737793 76.81808105 -113.77475586 76.63616211 -112.62841797 76.44873047 C-69.20261901 69.65968327 -22.76937028 69.8331452 19.59765625 82.31347656 C21.71298461 82.91797894 23.82200128 83.42225368 25.96875 83.8984375 C29.38345085 84.86814624 31.38821516 85.59240925 34 88 C36.85246781 93.26029528 37.84619709 99.19001419 39 105 C39.53793422 107.25089528 40.07920555 109.50099773 40.625 111.75 C40.85445313 112.79671875 41.08390625 113.8434375 41.3203125 114.921875 C41.7656782 116.9388185 42.23872952 118.94989218 42.7421875 120.953125 C47.33996845 139.4390484 48.5723086 158.01380992 49 177 C44.07509744 176.70183262 39.43652553 176.31033544 34.78125 174.6015625 C28.54030633 172.34086856 22.02720527 171.46063373 15.5 170.375 C12.96816069 169.94879859 10.4368734 169.51930007 7.90625 169.0859375 C6.79572266 168.9007959 5.68519531 168.7156543 4.54101562 168.52490234 C2 168 2 168 1 167 C0.90372027 165.29477909 0.81460767 163.58888417 0.75952148 161.88183594 C0.47662295 153.262541 -0.76827681 145.10668112 -2.62817383 136.69018555 C-3.49890584 132.7217415 -4.25798522 129.0944751 -4 125 C-21.6178598 121.97795835 -39.13925119 120.64404978 -57.00854492 120.68432617 C-59.93250621 120.68749459 -62.85545865 120.66386683 -65.77929688 120.63867188 C-77.93127255 120.5986256 -89.58873369 121.6100508 -101.57125854 123.60809326 C-105.01107455 124.16314908 -108.46098037 124.63501672 -111.91329956 125.10501099 C-124.92419409 126.90810314 -137.34573325 130.03909604 -149.8671875 134.0078125 C-151.94981863 134.66739892 -154.03850124 135.30818366 -156.1328125 135.9296875 C-179.44008602 142.85887692 -202.15307318 152.47618214 -223 165 C-223.63019043 165.37495605 -224.26038086 165.74991211 -224.90966797 166.13623047 C-235.45821213 172.44119799 -245.29283388 179.47360695 -255 187 C-255.99128906 187.76441406 -256.98257813 188.52882812 -258.00390625 189.31640625 C-260.00904565 190.86968325 -262.00868239 192.42907166 -264 194 C-257.84966883 225.52044726 -239.67811961 257.02919449 -220 282 C-219.57960449 282.53608887 -219.15920898 283.07217773 -218.72607422 283.62451172 C-207.73476645 297.4838572 -194.99960364 310.19838889 -181 321 C-179.47907826 322.24989243 -177.95824673 323.49989464 -176.4375 324.75 C-160.51044422 337.45100142 -143.57437461 348.66063126 -125.95996094 358.85546875 C-124.26730901 359.84390326 -122.5892132 360.85718692 -120.9140625 361.875 C-110.768134 368.01371304 -99.96077315 373.05412484 -89.0546875 377.6953125 C-86 379 -86 379 -83.9375 380.125 C-81.35303884 381.29217601 -78.79631308 381.61868458 -76 382 C-75.76667969 381.46632813 -75.53335937 380.93265625 -75.29296875 380.3828125 C-73.61578866 377.2919368 -71.48567457 374.62423574 -69.3125 371.875 C-65.02126498 366.3709574 -60.92421247 360.77377895 -57 355 C-56.53464844 354.32195312 -56.06929688 353.64390625 -55.58984375 352.9453125 C-43.30397331 334.80739792 -30.21226247 315.35212873 -22 295 C-21.18840886 293.06211912 -20.37581128 291.12465959 -19.5625 289.1875 C-17.6343877 284.55539837 -15.75419746 279.90676455 -13.90625 275.2421875 C-13.09959074 273.24640122 -12.24915388 271.27934624 -11.375 269.3125 C-9.96697359 265.92043638 -8.98141405 262.53560703 -8 259 C-36.33099856 256.25981853 -63.79518052 255.84912435 -91.76074219 261.59082031 C-94.16971845 262.08518911 -96.58348371 262.54415261 -99 263 C-99.7734375 263.17200928 -100.546875 263.34401855 -101.34375 263.52124023 C-105.57090021 264.28862643 -108.17290565 264.32266452 -111.8515625 261.96484375 C-113.13105272 260.98336053 -114.38827764 259.97235378 -115.625 258.9375 C-116.30087158 258.40036377 -116.97674316 257.86322754 -117.6730957 257.30981445 C-137.44537381 241.3318684 -137.44537381 241.3318684 -144 231 C-144 230.01 -144 229.02 -144 228 C-122.24629234 220.42648696 -100.8728731 214.99322614 -78 212 C-76.79279297 211.823479 -75.58558594 211.64695801 -74.34179688 211.46508789 C-69.18098482 210.82769207 -64.03011334 210.81883417 -58.8359375 210.796875 C-57.76743561 210.79117493 -56.69893372 210.78547485 -55.59805298 210.77960205 C-53.33718849 210.77018564 -51.07631048 210.76363148 -48.81542969 210.75976562 C-45.43398406 210.75016743 -42.05317553 210.71915641 -38.671875 210.6875 C-24.52278786 210.61932475 -10.95331044 211.69266569 3 214 C4.45958589 214.22695539 5.91937235 214.45262626 7.37939453 214.67675781 C20.42363232 216.74202216 33.1131219 220.97330992 45.43359375 225.66796875 C48.9518815 227.07199035 48.9518815 227.07199035 52.5625 227.8125 C68.16061721 231.53787557 83.75035453 239.77075483 98 247 C98 247.66 98 248.32 98 249 C98.73734375 249.10957031 99.4746875 249.21914063 100.234375 249.33203125 C103.1440017 250.03478007 104.8198266 250.97287766 107.25 252.6875 C108.01699219 253.21988281 108.78398438 253.75226563 109.57421875 254.30078125 C110.37472656 254.86152344 111.17523437 255.42226563 112 256 C113.68475013 257.12911393 115.37213872 258.25430378 117.0625 259.375 C118.375 260.25 119.6875 261.125 121 262 C118.17215768 281.64606243 112.79830642 301.72547817 105 320 C104.60683594 321.01707031 104.21367188 322.03414063 103.80859375 323.08203125 C85.49996521 370.39236197 58.396813 414.06250552 26 453 C24.88173878 454.36630941 23.76464241 455.73357267 22.6484375 457.1015625 C16.77527326 464.28859647 10.88960765 471.40916588 4.57421875 478.21484375 C2.9309124 479.92471286 2.9309124 479.92471286 2 482 C1.34 482 0.68 482 0 482 C-0.34224609 482.82902832 -0.34224609 482.82902832 -0.69140625 483.67480469 C-2.37845518 486.67246403 -4.50812518 488.7676506 -6.9375 491.203125 C-7.41823975 491.6857782 -7.89897949 492.1684314 -8.39428711 492.66571045 C-9.40721093 493.67999064 -10.42264638 494.69176804 -11.44042969 495.70117188 C-13.00173165 497.25171972 -14.55202497 498.81270503 -16.1015625 500.375 C-17.08790061 501.36001734 -18.0748585 502.34441453 -19.0625 503.328125 C-19.96097656 504.2243457 -20.85945313 505.12056641 -21.78515625 506.04394531 C-24 508 -24 508 -26 508 C-26 508.66 -26 509.32 -26 510 C-27.66581936 511.58996769 -29.40941388 513.09916096 -31.1875 514.5625 C-32.15042969 515.36816406 -33.11335938 516.17382812 -34.10546875 517.00390625 C-37.84885712 519.5853792 -40.3604079 520.19468332 -44.88061523 519.65795898 C-45.92934814 519.43954346 -46.97808105 519.22112793 -48.05859375 518.99609375 C-49.23808594 518.75318604 -50.41757812 518.51027832 -51.6328125 518.26000977 C-53.51613281 517.85286743 -53.51613281 517.85286743 -55.4375 517.4375 C-56.08315918 517.30028534 -56.72881836 517.16307068 -57.39404297 517.021698 C-78.97955673 512.43197751 -100.7305745 506.85867144 -121 498 C-122.72334018 497.35910922 -124.45228245 496.73299871 -126.1875 496.125 C-131.07836268 494.36641301 -135.86868668 492.43308333 -140.65234375 490.40234375 C-143.07445563 489.38771345 -145.49834563 488.4025043 -147.94140625 487.44140625 C-157.72950453 483.56103896 -166.95054421 479.01858642 -176.18896484 473.9765625 C-178.51652522 472.72147467 -180.87654739 471.54063747 -183.25 470.375 C-193.02922258 465.50987758 -202.44445624 460.21394468 -211.75 454.5 C-212.62503174 453.96632813 -213.50006348 453.43265625 -214.40161133 452.8828125 C-220.23342435 449.26652614 -225.66830694 445.31844477 -231 441 C-228.51652527 425.26147162 -220.43091291 411.87519713 -213 398 C-209.64505374 398.63074319 -207.41261298 399.87817555 -204.61328125 401.80859375 C-203.34158081 402.67484375 -203.34158081 402.67484375 -202.04418945 403.55859375 C-201.14273193 404.17863281 -200.24127441 404.79867188 -199.3125 405.4375 C-190.63095821 411.32278211 -181.81079918 416.79499578 -172.71142578 422.00390625 C-170.52080266 423.27890515 -168.389602 424.64152254 -166.25 426 C-157.89113508 431.02948652 -148.84202862 434.90937624 -140 439 C-139.12359863 439.40718262 -138.24719727 439.81436523 -137.34423828 440.23388672 C-123.07825847 446.84114636 -108.7962527 452.76453602 -93.671875 457.140625 C-91.28008198 457.90991515 -89.23419097 458.87359538 -87 460 C-84.97271014 460.4730343 -82.94355782 460.93935286 -80.90625 461.3671875 C-77.17090782 462.18052814 -73.46101314 463.08279416 -69.75 464 C-68.72181152 464.24919189 -68.72181152 464.24919189 -67.67285156 464.50341797 C-64.79616954 465.21732368 -62.0629157 465.97350918 -59.328125 467.125 C-56.58059208 468.15762982 -54.92204725 468.34332571 -52 468 C-49.59516266 466.3005207 -49.59516266 466.3005207 -47.3828125 463.90625 C-46.52816406 463.04 -45.67351562 462.17375 -44.79296875 461.28125 C-43.91253906 460.3634375 -43.03210938 459.445625 -42.125 458.5 C-41.25230469 457.613125 -40.37960937 456.72625 -39.48046875 455.8125 C-34.4721938 450.69125645 -29.64849824 445.44873477 -25 440 C-24.54061035 439.46793945 -24.0812207 438.93587891 -23.60791016 438.38769531 C-1.86442052 413.17010621 19.82649205 385.70833971 35.3359375 356.140625 C36.7442428 353.48269669 38.19194208 350.85712996 39.6640625 348.234375 C40.39302734 346.92980347 40.39302734 346.92980347 41.13671875 345.59887695 C42.10141557 343.87378509 43.06993365 342.15082237 44.04296875 340.43041992 C46.80348627 335.46630552 49.09906501 330.49504801 51.13769531 325.1940918 C52.43275474 321.89887689 54.08385198 318.83045319 55.75390625 315.71484375 C57.49957245 311.91158979 58.71743557 307.97921864 60 304 C60.60618602 302.17515337 61.21432077 300.35095313 61.82421875 298.52734375 C62.13037109 297.60888672 62.43652344 296.69042969 62.75195312 295.74414062 C64.16796875 291.49609375 65.58398438 287.24804688 67 283 C66.154375 282.7525 65.30875 282.505 64.4375 282.25 C61.33213848 281.12077763 58.73992344 279.70500273 55.90966797 278.02539062 C52.45841178 276.17224872 48.76705025 274.99437335 45.0625 273.75 C44.28326172 273.481875 43.50402344 273.21375 42.70117188 272.9375 C40.80294069 272.28534696 38.90176788 271.64176644 37 271 C36.90460938 271.78761719 36.80921875 272.57523437 36.7109375 273.38671875 C35.7931925 278.05108208 34.25928552 282.35564727 32.625 286.8125 C32.27630859 287.76447266 31.92761719 288.71644531 31.56835938 289.69726562 C25.3232727 306.43409791 18.24723376 322.70413219 9 338 C7.98907968 339.82733446 6.98865279 341.66052269 6 343.5 C0.94152245 352.80814704 -4.08966568 361.9997449 -10.3046875 370.59765625 C-12.03705485 373.05250859 -13.61343139 375.56618798 -15.1875 378.125 C-19.99652157 385.7527322 -25.50918665 392.85669665 -31 400 C-31.70479492 400.91966553 -31.70479492 400.91966553 -32.42382812 401.85791016 C-38.45145524 409.70111344 -44.69645027 417.32907093 -51.2109375 424.7734375 C-52.96964744 426.78492473 -54.63595825 428.80959872 -56.2890625 430.9140625 C-56.95679688 431.74679687 -57.62453125 432.57953125 -58.3125 433.4375 C-58.86550781 434.15808594 -59.41851562 434.87867188 -59.98828125 435.62109375 C-62 437 -62 437 -65.046875 436.94921875 C-70.14421295 435.90573829 -75.04310594 434.11011607 -79.9375 432.375 C-80.95005859 432.01962158 -81.96261719 431.66424316 -83.00585938 431.2980957 C-91.53606236 428.2586369 -99.7673732 424.76375878 -108 421 C-109.07894531 420.54238281 -110.15789062 420.08476562 -111.26953125 419.61328125 C-116.13618751 417.54009384 -120.90787852 415.26490774 -125.6875 413 C-127.09225586 412.34257813 -127.09225586 412.34257813 -128.52539062 411.671875 C-129.42837891 411.24390625 -130.33136719 410.8159375 -131.26171875 410.375 C-132.07600342 409.99085938 -132.89028809 409.60671875 -133.72924805 409.2109375 C-136.01377871 407.99265214 -137.94591806 406.56782502 -140 405 C-140.73992187 404.70480469 -141.47984375 404.40960938 -142.2421875 404.10546875 C-146.10311086 402.55781817 -149.55816111 400.44002566 -153.125 398.3125 C-153.88635254 397.86044189 -154.64770508 397.40838379 -155.43212891 396.94262695 C-161.36387285 393.40685466 -167.24093284 389.81234023 -173 386 C-173.67756348 385.55317871 -174.35512695 385.10635742 -175.05322266 384.64599609 C-185.92717622 377.4440697 -196.26095314 369.83698178 -206.25439453 361.45751953 C-207.8655705 360.11224393 -209.48865505 358.78418313 -211.12109375 357.46484375 C-216.89250029 352.79808922 -222.50011694 347.98384465 -228 343 C-237.18733657 351.32602377 -243.38099722 362.56286777 -249.79443359 373.04956055 C-250.60808387 374.36593399 -251.43429432 375.67461495 -252.27197266 376.97583008 C-255.24240645 381.60501126 -257.71592624 386.31205928 -260 391.3125 C-260.3403125 392.04654053 -260.680625 392.78058105 -261.03125 393.53686523 C-262.02683558 395.68854628 -263.01478094 397.84355579 -264 400 C-264.53625 401.17046875 -265.0725 402.3409375 -265.625 403.546875 C-266.75647601 406.02840761 -267.88237351 408.51220641 -269 411 C-272.65979209 409.72081477 -275.0967221 408.2986437 -277.890625 405.62109375 C-278.94830078 404.61695435 -278.94830078 404.61695435 -280.02734375 403.5925293 C-280.76082031 402.88136963 -281.49429688 402.17020996 -282.25 401.4375 C-283.00925781 400.71022705 -283.76851563 399.9829541 -284.55078125 399.23364258 C-286.7074248 397.16277462 -288.85421813 395.08210882 -291 393 C-291.92296875 392.11828125 -292.8459375 391.2365625 -293.796875 390.328125 C-298.45286917 385.80421577 -302.58675322 380.98916911 -306.63671875 375.91796875 C-308.65075912 373.43121147 -310.7254055 371.0176777 -312.83642578 368.61352539 C-324.75905298 354.92641831 -334.53908151 339.57842053 -343.79150391 324.00634766 C-345.05083273 321.9156074 -346.3476798 319.85177039 -347.65234375 317.7890625 C-349.42569356 314.96387794 -351.0442713 312.13003997 -352.5 309.125 C-352.91378906 308.279375 -353.32757813 307.43375 -353.75390625 306.5625 C-354.16511719 305.716875 -354.57632813 304.87125 -355 304 C-355.81041466 302.373959 -356.62291867 300.74895767 -357.4375 299.125 C-357.85 298.29484375 -358.2625 297.4646875 -358.6875 296.609375 C-359.58767789 294.81973562 -360.50531497 293.03880305 -361.4375 291.265625 C-364.72231234 284.93551788 -367.38739748 278.55764622 -369.81347656 271.86621094 C-371.27342681 267.85952271 -372.86394968 263.98503017 -374.6875 260.125 C-376.61422003 256.01998186 -378.00195384 251.96717337 -379.20776367 247.60107422 C-379.96856114 245.10322023 -380.8852642 242.76649136 -381.90234375 240.36328125 C-384.04033462 235.08781438 -385.56853018 229.75295742 -387 224.25 C-387.5160676 222.30445931 -388.03299354 220.3591461 -388.55078125 218.4140625 C-388.79779785 217.48239258 -389.04481445 216.55072266 -389.29931641 215.59082031 C-390.20294779 212.24958817 -391.19292597 208.94024678 -392.1875 205.625 C-393.98464107 199.39839091 -395.22515515 193.1384848 -396.33984375 186.76171875 C-396.74242269 184.46773342 -397.16662301 182.17723418 -397.62890625 179.89453125 C-398.15859187 177.26832772 -398.60787046 174.64997015 -399 172 C-399.13277344 171.17242187 -399.26554687 170.34484375 -399.40234375 169.4921875 C-400.125255 161.40065458 -395.95046831 156.99182896 -391 151 C-389.74406129 149.37654235 -388.50488984 147.74112884 -387.26586914 146.10473633 C-374.78264965 129.66348158 -374.78264965 129.66348158 -368 123 C-366.96991832 121.96105705 -365.94134486 120.92061718 -364.9140625 119.87890625 C-353.1826974 108.03098686 -353.1826974 108.03098686 -348 104 C-347.34 104 -346.68 104 -346 104 C-345.505 102.515 -345.505 102.515 -345 101 C-343.0234375 99.16015625 -343.0234375 99.16015625 -340.375 97.0625 C-339.37082031 96.26328125 -338.36664063 95.4640625 -337.33203125 94.640625 C-336.78885254 94.21201172 -336.24567383 93.78339844 -335.68603516 93.34179688 C-333.98775603 91.99025589 -332.31065557 90.6159148 -330.63671875 89.234375 C-313.05010381 74.79844063 -294.13654375 62.21370686 -274.22045898 51.22973633 C-272.09333238 50.05168941 -269.97845941 48.85462535 -267.8671875 47.6484375 C-267.20589844 47.27203125 -266.54460937 46.895625 -265.86328125 46.5078125 C-264.5284997 45.74732792 -263.19518161 44.98426943 -261.86328125 44.21875 C-256.05674754 40.92345689 -250.10441367 38.40363228 -243.875 36 C-241.2508055 34.95977876 -238.9241235 33.9544741 -236.5 32.5 C-228.19562858 27.51737715 -218.27075134 24.94995434 -209.15625 21.796875 C-205.9580347 20.68888795 -202.7704916 19.55871521 -199.59375 18.390625 C-189.8885372 14.83770269 -180.11274913 12.01766295 -170.08447266 9.52294922 C-168.29573392 9.07419326 -166.51247756 8.60368279 -164.73046875 8.12890625 C-157.79785248 6.29854382 -150.8280515 5.02498771 -143.76171875 3.84375 C-139.83627273 3.17792371 -135.95107492 2.3609334 -132.0546875 1.54296875 C-88.87885475 -7.26247691 -43.43519726 -5.95540719 0 0 Z " fill="#FDFDFD" transform="translate(408,53)"/>
<path d="M0 0 C3.42684939 0.52900594 6.85863865 1.01317273 10.29248047 1.49462891 C37.53745281 5.37155508 37.53745281 5.37155508 46.26513672 8.53759766 C49.5107937 9.66903533 52.21554023 10.49203317 55.64013672 10.91259766 C59.95476988 11.61862854 63.3744033 13.32583265 67.28857422 15.22900391 C69.88770365 16.39023961 72.32456519 17.10157169 75.07763672 17.78759766 C77.57673556 18.58053811 78.73684665 18.97835281 80.22998047 21.15478516 C81.0496695 23.25090537 81.59790162 25.27696715 82.07763672 27.47509766 C82.25552734 28.16474609 82.43341797 28.85439453 82.61669922 29.56494141 C83.12219129 31.53032475 83.60043283 33.50265491 84.07763672 35.47509766 C84.40763672 36.40322266 84.73763672 37.33134766 85.07763672 38.28759766 C85.94809805 41.06219314 86.47693798 43.61673243 86.95263672 46.47509766 C87.66509029 50.64963033 88.68265644 54.56195724 89.95263672 58.60009766 C92.83921081 68.33689983 94.11784798 78.37870996 95.60449219 88.40600586 C96.07928458 91.48578663 96.614582 94.55089951 97.15576172 97.61962891 C98.04758698 102.93244607 98.50164584 108.15807426 98.70263672 113.53759766 C98.7405835 114.42084717 98.77853027 115.30409668 98.81762695 116.21411133 C99.17397445 125.30056852 99.1711496 134.38356739 99.07763672 143.47509766 C99.71443359 143.55888672 100.35123047 143.64267578 101.00732422 143.72900391 C105.31678434 144.77621368 109.17568037 146.57680782 113.20263672 148.41259766 C114.07267334 148.80648682 114.94270996 149.20037598 115.83911133 149.60620117 C126.10316242 154.31537184 136.66405415 159.19937595 146.07763672 165.47509766 C145.89764588 136.92939588 145.65476004 108.70286482 141.07763672 80.47509766 C140.92472168 79.52666992 140.77180664 78.57824219 140.61425781 77.60107422 C140.0203261 73.99443568 139.38831723 70.40323595 138.69091797 66.81494141 C137.99813263 63.04212954 137.52407851 59.28445614 137.07763672 55.47509766 C141.48433247 60.69504628 144.1557247 66.3405361 147.07763672 72.47509766 C147.57521484 73.50119141 148.07279297 74.52728516 148.58544922 75.58447266 C152.6021854 84.03854567 155.93791976 92.667411 159.07763672 101.47509766 C159.51076172 102.67908203 159.94388672 103.88306641 160.39013672 105.12353516 C166.76029036 123.47754033 170.46816299 142.24695091 173.07763672 161.47509766 C173.18438721 162.23201904 173.2911377 162.98894043 173.40112305 163.76879883 C174.37613515 171.79550128 174.26370606 179.88510237 174.26293945 187.95825195 C174.26511122 190.50766075 174.28327822 193.05662524 174.30224609 195.60595703 C174.33969298 206.37937515 173.61747455 216.81462894 172.07763672 227.47509766 C171.85853638 229.0228186 171.85853638 229.0228186 171.63500977 230.60180664 C166.9327746 262.09603903 156.64306293 291.24788366 142.07763672 319.47509766 C141.58521484 320.44189453 141.09279297 321.40869141 140.58544922 322.40478516 C136.67393711 329.85212742 132.02998274 336.77334609 127.28515625 343.70654297 C126.16342501 345.34945059 125.05548945 347.00175431 123.94873047 348.65478516 C123.33126953 349.56486328 122.71380859 350.47494141 122.07763672 351.41259766 C121.27326172 352.60175781 121.27326172 352.60175781 120.45263672 353.81494141 C119.77201172 354.63671875 119.77201172 354.63671875 119.07763672 355.47509766 C118.41763672 355.47509766 117.75763672 355.47509766 117.07763672 355.47509766 C117.00802734 356.02681641 116.93841797 356.57853516 116.86669922 357.14697266 C115.7618978 360.40668377 113.81015726 362.23225116 111.45263672 364.72509766 C108.51356816 367.86248602 105.5979605 370.99872609 102.82763672 374.28759766 C94.11467193 384.27462805 84.5183964 393.32467104 74.07763672 401.47509766 C72.39004298 402.8499826 70.70254152 404.22498083 69.01513672 405.60009766 C57.3794041 414.84667514 44.75091741 422.42186196 31.76513672 429.60009766 C30.71712891 430.18017578 29.66912109 430.76025391 28.58935547 431.35791016 C27.76048828 431.72658203 26.93162109 432.09525391 26.07763672 432.47509766 C25.41763672 432.14509766 24.75763672 431.81509766 24.07763672 431.47509766 C24.45533203 431.04841797 24.83302734 430.62173828 25.22216797 430.18212891 C34.39172349 419.76705999 43.25436492 409.15565542 51.75 398.18505859 C53.0279492 396.53909387 54.31523684 394.90089065 55.60498047 393.26416016 C61.68625068 385.50727918 67.32233073 377.48685518 72.83300781 369.31640625 C73.92322369 367.70353686 75.02489157 366.0984206 76.12841797 364.49462891 C84.30054998 352.49868358 91.87384702 339.9518695 98.67138672 327.12744141 C99.70968129 325.16910248 100.77658988 323.22587216 101.85888672 321.29150391 C107.65932451 310.84866884 112.36323798 299.97879128 117.01464844 288.984375 C117.87102056 286.96283327 118.73992773 284.94660414 119.61279297 282.93212891 C123.18825089 274.59705819 126.17370617 266.06246128 129.07763672 257.47509766 C129.33722168 256.71245605 129.59680664 255.94981445 129.86425781 255.1640625 C136.51415533 236.21429816 136.51415533 236.21429816 139.07763672 216.47509766 C132.49019365 211.06479218 124.79559354 207.0267238 117.07763672 203.47509766 C117.07763672 202.81509766 117.07763672 202.15509766 117.07763672 201.47509766 C116.38541016 201.37583984 115.69318359 201.27658203 114.97998047 201.17431641 C111.52686596 200.3424086 108.78675768 198.93548124 105.64013672 197.28759766 C98.58716311 193.66080939 91.40875523 190.50775459 84.07763672 187.47509766 C83.14693359 187.08193359 82.21623047 186.68876953 81.25732422 186.28369141 C76.921902 184.48720911 72.72320079 183.06377238 68.15185547 182.02197266 C65.83954886 181.41232496 63.68224212 180.59000023 61.45263672 179.72509766 C17.73582521 163.74707823 -33.4435483 161.0155691 -78.92236328 170.47509766 C-79.81584473 170.65121582 -80.70932617 170.82733398 -81.62988281 171.00878906 C-94.08836059 173.47809993 -105.93979057 177.02155869 -117.82080078 181.48681641 C-120.92236328 182.47509766 -120.92236328 182.47509766 -124.92236328 182.47509766 C-119.04084398 195.43728097 -106.75554428 204.59425409 -95.43798828 212.67822266 C-92.92236328 214.47509766 -92.92236328 214.47509766 -91.15673828 216.27197266 C-87.47661673 218.25357657 -83.8680126 217.18687873 -79.92236328 216.47509766 C-78.92156738 216.29462891 -77.92077148 216.11416016 -76.88964844 215.92822266 C-73.50111708 215.29487128 -70.11833688 214.63489149 -66.73486328 213.97509766 C-57.41722265 212.22067045 -48.42018638 210.6030476 -38.92236328 210.47509766 C-38.01276855 210.46140137 -37.10317383 210.44770508 -36.16601562 210.43359375 C-3.24420836 210.00415638 -3.24420836 210.00415638 11.07763672 213.47509766 C10.60551123 220.39960489 7.86122234 226.18177364 5.07763672 232.47509766 C4.33513672 234.20759766 4.33513672 234.20759766 3.57763672 235.97509766 C2.83513672 237.70759766 2.83513672 237.70759766 2.07763672 239.47509766 C1.57683594 240.72613281 1.57683594 240.72613281 1.06591797 242.00244141 C-11.6584245 273.49624586 -30.88771974 302.5978714 -51.69873047 329.30029297 C-53.5293971 331.64972345 -55.2687389 333.99466109 -56.92236328 336.47509766 C-61.46227037 337.2141523 -63.96388216 336.05679149 -67.77001953 333.66650391 C-70.40373791 332.20863801 -73.09107732 331.24741021 -75.92236328 330.22509766 C-83.66370124 327.32320183 -90.72046615 323.49239754 -97.92236328 319.47509766 C-99.29592676 318.71834317 -100.66962652 317.96183601 -102.04345703 317.20556641 C-124.06562864 305.01866554 -144.58645418 290.57050121 -163.92236328 274.47509766 C-165.38029297 273.29753906 -165.38029297 273.29753906 -166.86767578 272.09619141 C-180.01764203 261.37298027 -193.00256886 249.28540694 -202.92236328 235.47509766 C-203.35145996 234.8953418 -203.78055664 234.31558594 -204.22265625 233.71826172 C-223.04375357 208.28022339 -238.56656667 179.41167768 -245.92236328 148.47509766 C-236.52845193 140.67296589 -227.0899302 133.24430324 -216.92236328 126.47509766 C-216.12443359 125.92337891 -215.32650391 125.37166016 -214.50439453 124.80322266 C-208.86062854 120.92750371 -202.97013847 117.67428308 -196.92236328 114.47509766 C-195.51063028 113.71779697 -194.09919189 112.9599469 -192.68798828 112.20166016 C-191.18298298 111.39659298 -189.67777461 110.59190533 -188.17236328 109.78759766 C-187.46337891 109.40692139 -186.75439453 109.02624512 -186.02392578 108.6340332 C-181.73469266 106.35537811 -177.41582685 104.3318592 -172.92236328 102.47509766 C-171.61889861 101.92580653 -170.31551647 101.37631952 -169.01220703 100.82666016 C-146.14874517 91.28767242 -146.14874517 91.28767242 -136.01220703 88.99462891 C-133.27551281 88.31429184 -130.61043513 87.45225262 -127.92236328 86.60009766 C-115.06795944 82.65050192 -102.30569297 79.92365109 -89.04736328 77.78759766 C-88.37578186 77.67900421 -87.70420044 77.57041077 -87.01226807 77.45852661 C-75.83105223 75.66313618 -64.91592198 74.32126567 -53.58642578 74.30712891 C-52.62699066 74.30380051 -51.66755554 74.30047211 -50.67904663 74.29704285 C-48.65712965 74.29201116 -46.63520448 74.28963335 -44.61328125 74.28979492 C-41.58985893 74.28762811 -38.56681411 74.26948604 -35.54345703 74.25048828 C-18.42440859 74.20044077 -1.509302 74.9348772 15.07763672 79.47509766 C18.14115713 93.4761455 20.86033579 107.11348152 21.07763672 121.47509766 C22.05861328 121.65685547 23.03958984 121.83861328 24.05029297 122.02587891 C28.39443899 122.83334705 32.7363707 123.65229972 37.07763672 124.47509766 C38.34478516 124.71486328 39.61193359 124.95462891 40.91748047 125.20166016 C50.05955659 126.97738892 59.06543941 129.14211097 68.07763672 131.47509766 C66.35284023 104.44627468 64.03606518 75.81718937 54.12841797 50.35791016 C53.16789983 47.722734 52.5411228 45.23564111 52.07763672 42.47509766 C38.63019484 37.58969742 25.15269173 34.04526403 11.07763672 31.47509766 C10.1951123 31.30848633 9.31258789 31.141875 8.40332031 30.97021484 C-43.69439491 21.61412767 -100.86211895 29.60694473 -150.92236328 45.47509766 C-151.7219043 45.72646484 -152.52144531 45.97783203 -153.34521484 46.23681641 C-161.64962106 48.86804765 -169.82361455 51.67321287 -177.82080078 55.14306641 C-180.14965419 56.14324148 -182.4787162 57.09878531 -184.83642578 58.02587891 C-194.60304816 61.89136238 -203.79032351 66.42607489 -213.0078125 71.45117188 C-215.73474852 72.90957148 -218.51396614 74.25329259 -221.29736328 75.60009766 C-227.12214027 78.48867916 -232.5103223 81.88229408 -237.92236328 85.47509766 C-238.89044922 86.10416016 -239.85853516 86.73322266 -240.85595703 87.38134766 C-256.01986732 97.31972319 -270.34852143 108.51879197 -283.44824219 121.06347656 C-284.43381493 122.00726285 -285.42575712 122.94444079 -286.42382812 123.875 C-287.86705906 125.23437202 -289.27043464 126.63566902 -290.67236328 128.03759766 C-291.49220703 128.84326172 -292.31205078 129.64892578 -293.15673828 130.47900391 C-296.73160339 136.545202 -295.18117479 142.96544715 -293.60205078 149.54150391 C-293.01574127 151.71104818 -292.41358242 153.87635838 -291.79736328 156.03759766 C-291.47751465 157.18510498 -291.15766602 158.3326123 -290.828125 159.51489258 C-283.82631634 184.25056254 -274.1576649 209.13369598 -260.44189453 230.97119141 C-259.11178866 233.1629597 -257.89065376 235.37665649 -256.67236328 237.63134766 C-253.8030148 242.82618118 -250.49712092 247.67006689 -247.10986328 252.53759766 C-246.51238281 253.40320313 -245.91490234 254.26880859 -245.29931641 255.16064453 C-243.84395391 257.26800942 -242.38494346 259.37273882 -240.92236328 261.47509766 C-243.71358549 265.20561651 -246.50806868 268.93276054 -249.33642578 272.63525391 C-253.23993594 277.75947307 -256.9356112 282.76131106 -259.92236328 288.47509766 C-260.58236328 288.47509766 -261.24236328 288.47509766 -261.92236328 288.47509766 C-263.49732858 286.53027749 -264.93645334 284.5903393 -266.35986328 282.53759766 C-266.79943359 281.91079102 -267.23900391 281.28398437 -267.69189453 280.63818359 C-276.47664157 268.01321168 -284.49422844 255.08801352 -291.79980469 241.55273438 C-292.85689138 239.59627335 -293.92472884 237.64615403 -294.99658203 235.69775391 C-297.90502384 230.37475663 -300.66701384 225.11347125 -302.92236328 219.47509766 C-303.26525391 218.66556641 -303.60814453 217.85603516 -303.96142578 217.02197266 C-305.30518575 213.84896523 -306.61697105 210.66408575 -307.92236328 207.47509766 C-308.17501953 206.86359863 -308.42767578 206.25209961 -308.68798828 205.62207031 C-316.26785947 187.16935695 -322.63633857 168.0568738 -327.14892578 148.61962891 C-327.83836851 145.81659155 -328.68051566 143.18220468 -329.67236328 140.47509766 C-332.30422516 132.50431597 -332.30422516 132.50431597 -330.92236328 128.47509766 C-328.34871728 125.03347692 -325.45259318 122.02676952 -322.40527344 119.00463867 C-320.73171176 117.278451 -319.1672087 115.48031808 -317.59814453 113.65869141 C-308.02476199 102.6227992 -297.46399493 92.42310422 -285.92236328 83.47509766 C-284.78463025 82.55085847 -283.6493698 81.6235703 -282.51611328 80.69384766 C-267.33882638 68.28066971 -251.43555342 57.69427169 -234.43994141 47.92333984 C-232.1731514 46.61936406 -229.91361979 45.30393236 -227.65673828 43.98291016 C-222.18046966 40.79839799 -216.77168798 37.93360203 -210.92236328 35.47509766 C-208.48056144 34.33734999 -206.04369942 33.19198759 -203.60986328 32.03759766 C-197.78908294 29.30257531 -191.94535886 26.73870692 -185.92236328 24.47509766 C-185.12314453 24.17216797 -184.32392578 23.86923828 -183.50048828 23.55712891 C-171.48792419 19.09791951 -159.26679833 14.91964965 -146.92236328 11.47509766 C-146.30973633 11.30155762 -145.69710937 11.12801758 -145.06591797 10.94921875 C-98.44934488 -2.15964928 -48.08530865 -7.42558807 0 0 Z " fill="#0F9470" transform="translate(388.92236328125,98.52490234375)"/>
<path d="M0 0 C1.17079102 0.16016602 2.34158203 0.32033203 3.54785156 0.48535156 C17.67907387 2.51023921 31.32612084 5.94178897 45 10 C45.74362793 10.2180127 46.48725586 10.43602539 47.25341797 10.66064453 C57.3512416 13.63853626 67.18760967 17.19346927 77 21 C77.94875 21.3609375 78.8975 21.721875 79.875 22.09375 C81.48904356 22.71919188 83.09541005 23.36499933 84.69140625 24.03515625 C86.32506192 24.71791928 87.98219365 25.34572059 89.65234375 25.93359375 C93.54570677 27.49436923 96.23000214 28.79478595 98.52734375 32.390625 C99.87778136 35.54883692 100.94765357 38.73046849 102 42 C102.45632813 43.19238281 102.91265625 44.38476562 103.3828125 45.61328125 C108.02233421 57.74694273 111.06610685 70.309802 114.20458984 82.89746094 C114.92857751 85.72141283 115.71477995 88.51858576 116.51953125 91.3203125 C119.85632157 103.49062495 121.55514273 116.07883263 123.30761719 128.55639648 C123.62736662 130.82932304 123.95395156 133.10119635 124.28125 135.37304688 C124.49258977 136.85931786 124.70354109 138.34564413 124.9140625 139.83203125 C125.0992041 141.13889893 125.2843457 142.4457666 125.47509766 143.79223633 C126.67284191 153.03242542 127.14214962 162.13326175 127.09765625 171.44921875 C127.0962413 172.58784866 127.09482635 173.72647858 127.09336853 174.89961243 C127.08782209 178.49560298 127.07527989 182.09152863 127.0625 185.6875 C127.05747807 188.14257722 127.05291638 190.59765542 127.04882812 193.05273438 C127.03787028 199.03517797 127.02118647 205.01758434 127 211 C123.43791942 209.61849857 120.13103061 208.02701177 116.78295898 206.18139648 C104.89406697 199.63800846 92.46539133 194.33629953 80 189 C79.93268677 187.31596069 79.93268677 187.31596069 79.86401367 185.59790039 C79.69097585 181.34606061 79.5026949 177.09499837 79.31030273 172.84399414 C79.22978564 171.02027394 79.15315064 169.1963773 79.08081055 167.37231445 C78.65152678 156.62245693 77.77604995 146.23417775 75.71118164 135.66967773 C75.12293833 132.63435838 74.62825753 129.62650247 74.2265625 126.5625 C73.06367051 117.71571252 71.45577886 109.34440505 68.77270508 100.82714844 C67.25798241 96.01193696 66.18037554 91.28874546 65.45703125 86.296875 C64.9396196 83.69654976 64.00196363 81.45095718 63 79 C62.60939751 77.50907286 62.25354002 76.00849353 61.9375 74.5 C61.78152344 73.7678125 61.62554687 73.035625 61.46484375 72.28125 C60.97052497 69.85534942 60.48306805 67.42816508 60 65 C59.31035156 64.82984375 58.62070312 64.6596875 57.91015625 64.484375 C53.23145139 63.27779542 48.80385337 62.02677661 44.4375 59.9375 C40.49004698 58.07987505 36.72798759 57.23870885 32.4453125 56.4921875 C30.13689167 56.02755327 28.08045354 55.37591823 25.875 54.5625 C14.99057063 50.80924849 3.08981536 49.65645298 -8.25 47.9375 C-9.30687012 47.77515869 -10.36374023 47.61281738 -11.45263672 47.44555664 C-28.62997396 44.90520986 -45.6385866 43.58506431 -63 43.625 C-64.41765656 43.62631424 -64.41765656 43.62631424 -65.86395264 43.62765503 C-105.88722994 43.74859277 -147.50129755 49.53704789 -185 64 C-186.8734426 64.69173265 -188.74847094 65.37918459 -190.625 66.0625 C-191.53894531 66.39636719 -192.45289063 66.73023437 -193.39453125 67.07421875 C-195.68887961 67.88945198 -197.99122377 68.64128792 -200.3125 69.375 C-210.52566681 72.75515841 -220.19621619 77.48211812 -229.74609375 82.38671875 C-231.91298499 83.46105979 -234.1142906 84.46862689 -236.34375 85.40625 C-259.30599442 95.41543346 -280.71894283 110.15944651 -300 126 C-300.6172998 126.50692383 -301.23459961 127.01384766 -301.87060547 127.53613281 C-305.62690697 130.63876167 -309.32545111 133.80103986 -313 137 C-313.82242188 137.71027344 -314.64484375 138.42054688 -315.4921875 139.15234375 C-326.22504229 148.60077494 -336.52779754 158.66685058 -345.36328125 169.92578125 C-347 172 -347 172 -349 174 C-349.52235733 180.26828798 -348.29904618 185.11737247 -346.25 191 C-344.28780266 196.88545188 -342.51742064 202.7036329 -341.125 208.75 C-337.30005192 224.60759725 -331.25393104 239.9582176 -325 255 C-324.59265625 256.00675781 -324.1853125 257.01351563 -323.765625 258.05078125 C-313.2596328 283.80410628 -299.42139411 308.38800966 -282.203125 330.28515625 C-281 332 -281 332 -281 334 C-280.34 334 -279.68 334 -279 334 C-278.9071875 333.44441406 -278.814375 332.88882812 -278.71875 332.31640625 C-275.97215877 323.46462038 -266.88532133 315.04331279 -261 308 C-257.59027363 309.42010296 -255.96383397 311.02531599 -253.8125 314 C-246.42202853 323.81742715 -237.73581653 332.39721621 -229 341 C-230.36266881 344.98916 -232.14535565 347.55201783 -234.9375 350.6875 C-240.71632811 357.55861064 -245.16325552 365.14662386 -249.71679688 372.86206055 C-250.96668782 374.94449871 -252.26619712 376.9874967 -253.578125 379.03125 C-256.0595342 382.98191466 -258.06357748 387.07315967 -260 391.3125 C-260.3403125 392.04654053 -260.680625 392.78058105 -261.03125 393.53686523 C-262.02683558 395.68854628 -263.01478094 397.84355579 -264 400 C-264.53625 401.17046875 -265.0725 402.3409375 -265.625 403.546875 C-266.75647601 406.02840761 -267.88237351 408.51220641 -269 411 C-272.65979209 409.72081477 -275.0967221 408.2986437 -277.890625 405.62109375 C-278.94830078 404.61695435 -278.94830078 404.61695435 -280.02734375 403.5925293 C-280.76082031 402.88136963 -281.49429688 402.17020996 -282.25 401.4375 C-283.00925781 400.71022705 -283.76851563 399.9829541 -284.55078125 399.23364258 C-286.7074248 397.16277462 -288.85421813 395.08210882 -291 393 C-291.92296875 392.11828125 -292.8459375 391.2365625 -293.796875 390.328125 C-298.45286917 385.80421577 -302.58675322 380.98916911 -306.63671875 375.91796875 C-308.65075912 373.43121147 -310.7254055 371.0176777 -312.83642578 368.61352539 C-324.75905298 354.92641831 -334.53908151 339.57842053 -343.79150391 324.00634766 C-345.05083273 321.9156074 -346.3476798 319.85177039 -347.65234375 317.7890625 C-349.42569356 314.96387794 -351.0442713 312.13003997 -352.5 309.125 C-352.91378906 308.279375 -353.32757813 307.43375 -353.75390625 306.5625 C-354.16511719 305.716875 -354.57632813 304.87125 -355 304 C-355.81041466 302.373959 -356.62291867 300.74895767 -357.4375 299.125 C-357.85 298.29484375 -358.2625 297.4646875 -358.6875 296.609375 C-359.58767789 294.81973562 -360.50531497 293.03880305 -361.4375 291.265625 C-364.72231234 284.93551788 -367.38739748 278.55764622 -369.81347656 271.86621094 C-371.27342681 267.85952271 -372.86394968 263.98503017 -374.6875 260.125 C-376.61422003 256.01998186 -378.00195384 251.96717337 -379.20776367 247.60107422 C-379.96856114 245.10322023 -380.8852642 242.76649136 -381.90234375 240.36328125 C-384.04033462 235.08781438 -385.56853018 229.75295742 -387 224.25 C-387.5160676 222.30445931 -388.03299354 220.3591461 -388.55078125 218.4140625 C-388.79779785 217.48239258 -389.04481445 216.55072266 -389.29931641 215.59082031 C-390.20294779 212.24958817 -391.19292597 208.94024678 -392.1875 205.625 C-393.98464107 199.39839091 -395.22515515 193.1384848 -396.33984375 186.76171875 C-396.74242269 184.46773342 -397.16662301 182.17723418 -397.62890625 179.89453125 C-398.15859187 177.26832772 -398.60787046 174.64997015 -399 172 C-399.13277344 171.17242187 -399.26554687 170.34484375 -399.40234375 169.4921875 C-400.125255 161.40065458 -395.95046831 156.99182896 -391 151 C-389.74406129 149.37654235 -388.50488984 147.74112884 -387.26586914 146.10473633 C-374.78264965 129.66348158 -374.78264965 129.66348158 -368 123 C-366.96991832 121.96105705 -365.94134486 120.92061718 -364.9140625 119.87890625 C-353.1826974 108.03098686 -353.1826974 108.03098686 -348 104 C-347.34 104 -346.68 104 -346 104 C-345.505 102.515 -345.505 102.515 -345 101 C-343.0234375 99.16015625 -343.0234375 99.16015625 -340.375 97.0625 C-339.37082031 96.26328125 -338.36664063 95.4640625 -337.33203125 94.640625 C-336.78885254 94.21201172 -336.24567383 93.78339844 -335.68603516 93.34179688 C-333.98775603 91.99025589 -332.31065557 90.6159148 -330.63671875 89.234375 C-313.05010381 74.79844063 -294.13654375 62.21370686 -274.22045898 51.22973633 C-272.09333238 50.05168941 -269.97845941 48.85462535 -267.8671875 47.6484375 C-267.20589844 47.27203125 -266.54460937 46.895625 -265.86328125 46.5078125 C-264.5284997 45.74732792 -263.19518161 44.98426943 -261.86328125 44.21875 C-256.05674754 40.92345689 -250.10441367 38.40363228 -243.875 36 C-241.2508055 34.95977876 -238.9241235 33.9544741 -236.5 32.5 C-228.19562858 27.51737715 -218.27075134 24.94995434 -209.15625 21.796875 C-205.9580347 20.68888795 -202.7704916 19.55871521 -199.59375 18.390625 C-189.8885372 14.83770269 -180.11274913 12.01766295 -170.08447266 9.52294922 C-168.29573392 9.07419326 -166.51247756 8.60368279 -164.73046875 8.12890625 C-157.79785248 6.29854382 -150.8280515 5.02498771 -143.76171875 3.84375 C-139.83627273 3.17792371 -135.95107492 2.3609334 -132.0546875 1.54296875 C-88.87885475 -7.26247691 -43.43519726 -5.95540719 0 0 Z " fill="#F9AB33" transform="translate(408,53)"/>
<path d="M0 0 C1.60158835 2.40238252 2.77254613 4.51438048 3.9375 7.125 C4.25589844 7.82882812 4.57429688 8.53265625 4.90234375 9.2578125 C5.82447748 11.56150601 6.61514992 13.84472396 7.37890625 16.203125 C8.9958416 21.12671096 10.9577551 25.86488031 13 30.625 C13.34289063 31.43195313 13.68578125 32.23890625 14.0390625 33.0703125 C15.02222174 35.38186246 16.01027852 37.69125347 17 40 C17.49757813 41.16402344 17.99515625 42.32804687 18.5078125 43.52734375 C19.00023438 44.67332031 19.49265625 45.81929688 20 47 C20.29745117 47.69287109 20.59490234 48.38574219 20.90136719 49.09960938 C21.88540186 51.38209222 22.87944399 53.66002148 23.875 55.9375 C24.36419922 57.07735352 24.36419922 57.07735352 24.86328125 58.24023438 C26.86864652 62.80887783 29.14084308 66.98175522 31.85009766 71.16967773 C33.43080284 73.68571738 34.69137419 76.33402295 36 79 C46.98579579 99.00674075 60.32266987 117.54773715 75 135 C75.47953125 135.57121582 75.9590625 136.14243164 76.453125 136.73095703 C93.05895416 157.36201305 93.05895416 157.36201305 114 173 C114.185625 172.17822266 114.185625 172.17822266 114.375 171.33984375 C116.41012506 163.5173318 120.08641612 156.88302615 123.98632812 149.87548828 C125.03009287 147.9443224 126.00141525 145.98797191 126.96484375 144.015625 C128.962065 139.9861179 131.22704503 136.17713702 133.625 132.375 C134.05449951 131.69131348 134.48399902 131.00762695 134.92651367 130.30322266 C140.7469286 121.13403237 146.97126761 112.28519605 154 104 C158.44151807 107.16365114 162.6116096 110.49305454 166.625 114.1875 C182.32238397 128.47736777 200.01246666 140.78855918 218 152 C219.4155955 152.88895531 220.83094962 153.77829508 222.24609375 154.66796875 C225.60615131 156.77676469 228.9664305 158.88508172 232.34033203 160.97167969 C233.7413471 161.83974022 235.13518888 162.71936235 236.52734375 163.6015625 C238.98264494 164.99018466 241.48819101 166.07882393 244.09033203 167.16064453 C247.64012125 168.72088173 251.02632003 170.59834896 254.4375 172.4375 C264.70237435 178.05199839 264.70237435 178.05199839 275.375 182.8125 C276.21804688 183.14121094 277.06109375 183.46992188 277.9296875 183.80859375 C278.94289063 184.20175781 279.95609375 184.59492188 281 185 C282.33622423 185.53183224 283.67213761 186.06444586 285.0078125 186.59765625 C292.88467917 189.72624896 300.80248225 192.72844164 308.8125 195.5 C309.55886719 195.76731934 310.30523437 196.03463867 311.07421875 196.31005859 C315.0451657 197.65279867 318.01099148 198.56122775 322 197 C323.64379854 195.69817463 323.64379854 195.69817463 325 193.875 C325.88751953 192.79412109 325.88751953 192.79412109 326.79296875 191.69140625 C327.52128906 190.80324219 328.24960937 189.91507813 329 189 C329.99200999 187.85971563 330.98845035 186.72327678 331.98828125 185.58984375 C339.00293735 177.63263905 345.66882342 169.50922012 352 161 C352.44053711 160.41250977 352.88107422 159.82501953 353.33496094 159.21972656 C363.28938722 145.93067345 372.40770355 132.20839629 381 118 C381.73756546 116.80554729 382.47586862 115.61154985 383.21484375 114.41796875 C388.3089097 106.13533418 392.81022878 97.67574494 397.0546875 88.93017578 C397.96685408 87.06767863 398.90000016 85.21775811 399.84375 83.37109375 C408.15184697 67.0646315 414.1535317 50.31288843 420 33 C430.78686176 34.67478751 440.37643969 40.03465239 450 45 C449.43497023 50.75719522 447.81632507 55.54156833 445.625 60.875 C443.77478102 65.44566807 441.97200551 69.99176258 440.4609375 74.6875 C439.26579728 78.34935867 437.78914326 81.70512721 436 85.125 C434.13334202 88.7124833 432.4476517 92.30614989 430.87548828 96.03125 C425.09640991 109.02692428 417.82404863 121.39500785 410.09179688 133.30859375 C408.53007994 135.7279978 407.02107859 138.1799017 405.5 140.625 C401.67003575 146.62050479 397.53017334 152.38754317 393.35009766 158.14111328 C391.97264961 160.03765749 390.6015992 161.93872883 389.23046875 163.83984375 C384.37478015 170.54475246 379.40773048 177.09822343 374.10546875 183.4609375 C372.06623292 185.92012728 370.09370414 188.42171174 368.125 190.9375 C364.16491888 195.90933837 359.89829704 200.55435288 355.57421875 205.20703125 C353.57755186 207.37336938 351.64892041 209.56210846 349.75 211.8125 C348.51189311 213.21889327 347.2590319 214.6123079 346 216 C345.45794922 216.59876953 344.91589844 217.19753906 344.35742188 217.81445312 C342.42846419 219.92041631 340.46791383 221.99293772 338.5 224.0625 C337.87061523 224.75512939 337.24123047 225.44775879 336.59277344 226.16137695 C334.80239967 228.0112277 333.16089047 229.59938064 331 231 C327.3359375 231.0234375 327.3359375 231.0234375 324 230 C323.15695312 229.77441406 322.31390625 229.54882812 321.4453125 229.31640625 C320.67960937 229.06761719 319.91390625 228.81882812 319.125 228.5625 C315.24597754 227.35322643 311.38873743 226.37772076 307.41796875 225.52734375 C304.58158285 224.90874586 301.7590315 224.24575669 298.9375 223.5625 C297.99777344 223.33691406 297.05804688 223.11132812 296.08984375 222.87890625 C292.29957263 221.80076339 288.67355101 220.41842195 285 219 C283.72586742 218.52181699 282.45113616 218.04522584 281.17578125 217.5703125 C277.77907776 216.30062656 274.38494634 215.02417706 270.99121094 213.74658203 C269.19687598 213.07381642 267.3994029 212.40943486 265.6015625 211.74609375 C257.90716102 208.86781764 250.49102733 205.53232196 243.08789062 201.98876953 C240.87443681 200.94053661 238.64965235 199.91975755 236.421875 198.90234375 C226.30025057 194.24998802 216.65339544 189.12813972 207.15332031 183.31347656 C204.92085598 181.95172394 202.6765484 180.61128485 200.4296875 179.2734375 C192.48815084 174.51756473 184.7585523 169.60841174 177.32543945 164.08398438 C174.87148087 162.26883999 172.92224285 160.97408095 170 160 C169.62101562 161.00740234 169.62101562 161.00740234 169.234375 162.03515625 C167.75108101 165.59787821 166.00655691 169.00488986 164.25 172.4375 C156.41111233 187.04408936 156.41111233 187.04408936 153 203 C170.82146043 216.59766315 190.88429096 227.04152431 210.91943359 236.96337891 C212.95838349 237.979265 214.98992083 239.00856696 217.01953125 240.04296875 C229.62002254 246.45135986 242.3113656 252.21078351 255.69482422 256.79248047 C260.55277286 258.4603351 265.31254237 260.29705367 270.0625 262.25 C275.01735131 264.26786056 279.76082936 265.9307815 285 267 C285 267.33 285 267.66 285 268 C248.98291385 268.39916634 215.34362847 266.16654096 181 254 C180.32114746 253.76313477 179.64229492 253.52626953 178.94287109 253.28222656 C170.96420631 250.47709195 163.17574697 247.28550491 155.4375 243.875 C154.33039673 243.38797607 154.33039673 243.38797607 153.20092773 242.89111328 C147.19056674 240.19381396 141.55695593 237.04495464 136 233.5 C133.48958196 231.91523803 130.96337478 230.39132284 128.375 228.9375 C122.6887825 225.67318996 117.38176005 221.88370661 112.0625 218.0625 C111.48048828 217.64548828 110.89847656 217.22847656 110.29882812 216.79882812 C109.12888647 215.96056428 107.96041083 215.12025032 106.79345703 214.27783203 C105.53903971 213.38406396 104.27332783 212.50603319 102.99951172 211.64013672 C101.2996414 210.47396154 99.64535967 209.24189983 98 208 C98 207.34 98 206.68 98 206 C96.9171875 205.6596875 96.9171875 205.6596875 95.8125 205.3125 C92.42346813 203.73095179 90.59606011 201.6845292 88 199 C86.4124611 197.4338787 84.82389486 195.8687982 83.234375 194.3046875 C81.40610491 192.49493823 79.57798439 190.68503784 77.75 188.875 C76.84636719 187.988125 75.94273438 187.10125 75.01171875 186.1875 C68.89269148 180.11249451 63.3228031 173.78155437 58 167 C57.54351074 166.4229834 57.08702148 165.8459668 56.61669922 165.25146484 C47.69970468 153.84600671 39.6822782 141.84114035 33 129 C32.3470406 127.79059096 31.69195532 126.58232812 31.03515625 125.375 C24.43744155 113.22050218 19.17230603 101.01564618 14.68017578 87.94189453 C13.7969189 85.42020565 12.83410592 82.93117539 11.875 80.4375 C3.89480559 58.2702933 -0.28907541 32.9039849 -0.0625 9.375 C-0.05798828 8.46621094 -0.05347656 7.55742187 -0.04882812 6.62109375 C-0.03721178 4.41398911 -0.02088168 2.20703303 0 0 Z " fill="#109570" transform="translate(25,291)"/>
<path d="M0 0 C18.06345654 4.28115186 35.48992328 12.62397461 52 21 C52 21.66 52 22.32 52 23 C52.73734375 23.10957031 53.4746875 23.21914063 54.234375 23.33203125 C57.1440017 24.03478007 58.8198266 24.97287766 61.25 26.6875 C62.01699219 27.21988281 62.78398438 27.75226563 63.57421875 28.30078125 C64.37472656 28.86152344 65.17523437 29.42226563 66 30 C67.68475013 31.12911393 69.37213872 32.25430378 71.0625 33.375 C72.375 34.25 73.6875 35.125 75 36 C72.17215768 55.64606243 66.79830642 75.72547817 59 94 C58.60683594 95.01707031 58.21367188 96.03414063 57.80859375 97.08203125 C39.49996521 144.39236197 12.396813 188.06250552 -20 227 C-21.11826122 228.36630941 -22.23535759 229.73357267 -23.3515625 231.1015625 C-29.22472674 238.28859647 -35.11039235 245.40916588 -41.42578125 252.21484375 C-43.0690876 253.92471286 -43.0690876 253.92471286 -44 256 C-44.66 256 -45.32 256 -46 256 C-46.22816406 256.55268555 -46.45632813 257.10537109 -46.69140625 257.67480469 C-48.37845518 260.67246403 -50.50812518 262.7676506 -52.9375 265.203125 C-53.41823975 265.6857782 -53.89897949 266.1684314 -54.39428711 266.66571045 C-55.40721093 267.67999064 -56.42264638 268.69176804 -57.44042969 269.70117188 C-59.00173165 271.25171972 -60.55202497 272.81270503 -62.1015625 274.375 C-63.08790061 275.36001734 -64.0748585 276.34441453 -65.0625 277.328125 C-65.96097656 278.2243457 -66.85945312 279.12056641 -67.78515625 280.04394531 C-70 282 -70 282 -72 282 C-72 282.66 -72 283.32 -72 284 C-73.66581936 285.58996769 -75.40941388 287.09916096 -77.1875 288.5625 C-78.15042969 289.36816406 -79.11335937 290.17382812 -80.10546875 291.00390625 C-83.84885712 293.5853792 -86.3604079 294.19468332 -90.88061523 293.65795898 C-91.92934814 293.43954346 -92.97808105 293.22112793 -94.05859375 292.99609375 C-95.82783203 292.63173218 -95.82783203 292.63173218 -97.6328125 292.26000977 C-99.51613281 291.85286743 -99.51613281 291.85286743 -101.4375 291.4375 C-102.08315918 291.30028534 -102.72881836 291.16307068 -103.39404297 291.021698 C-124.97955673 286.43197751 -146.7305745 280.85867144 -167 272 C-168.72334018 271.35910922 -170.45228245 270.73299871 -172.1875 270.125 C-177.07836268 268.36641301 -181.86868668 266.43308333 -186.65234375 264.40234375 C-189.07445563 263.38771345 -191.49834563 262.4025043 -193.94140625 261.44140625 C-203.72950453 257.56103896 -212.95054421 253.01858642 -222.18896484 247.9765625 C-224.51652522 246.72147467 -226.87654739 245.54063747 -229.25 244.375 C-239.02922258 239.50987758 -248.44445624 234.21394468 -257.75 228.5 C-258.62503174 227.96632813 -259.50006348 227.43265625 -260.40161133 226.8828125 C-266.23342435 223.26652614 -271.66830694 219.31844477 -277 215 C-274.51652527 199.26147162 -266.43091291 185.87519713 -259 172 C-255.64505374 172.63074319 -253.41261298 173.87817555 -250.61328125 175.80859375 C-249.76548096 176.38609375 -248.91768066 176.96359375 -248.04418945 177.55859375 C-247.14273193 178.17863281 -246.24127441 178.79867187 -245.3125 179.4375 C-236.63095821 185.32278211 -227.81079918 190.79499578 -218.71142578 196.00390625 C-216.52080266 197.27890515 -214.389602 198.64152254 -212.25 200 C-203.89113508 205.02948652 -194.84202862 208.90937624 -186 213 C-185.12359863 213.40718262 -184.24719727 213.81436523 -183.34423828 214.23388672 C-169.07825847 220.84114636 -154.7962527 226.76453602 -139.671875 231.140625 C-137.28008198 231.90991515 -135.23419097 232.87359538 -133 234 C-130.97271014 234.4730343 -128.94355782 234.93935286 -126.90625 235.3671875 C-123.17090782 236.18052814 -119.46101314 237.08279416 -115.75 238 C-115.06454102 238.16612793 -114.37908203 238.33225586 -113.67285156 238.50341797 C-110.79616954 239.21732368 -108.0629157 239.97350918 -105.328125 241.125 C-102.58059208 242.15762982 -100.92204725 242.34332571 -98 242 C-95.59516266 240.3005207 -95.59516266 240.3005207 -93.3828125 237.90625 C-92.52816406 237.04 -91.67351562 236.17375 -90.79296875 235.28125 C-89.91253906 234.3634375 -89.03210938 233.445625 -88.125 232.5 C-87.25230469 231.613125 -86.37960937 230.72625 -85.48046875 229.8125 C-80.4721938 224.69125645 -75.64849824 219.44873477 -71 214 C-70.54061035 213.46793945 -70.0812207 212.93587891 -69.60791016 212.38769531 C-47.86442052 187.17010621 -26.17350795 159.70833971 -10.6640625 130.140625 C-9.2557572 127.48269669 -7.80805792 124.85712996 -6.3359375 122.234375 C-5.84996094 121.36466064 -5.36398437 120.49494629 -4.86328125 119.59887695 C-3.89858443 117.87378509 -2.93006635 116.15082237 -1.95703125 114.43041992 C0.80348627 109.46630552 3.09906501 104.49504801 5.13769531 99.1940918 C6.43275474 95.89887689 8.08385198 92.83045319 9.75390625 89.71484375 C11.49957245 85.91158979 12.71743557 81.97921864 14 78 C14.60618602 76.17515337 15.21432077 74.35095313 15.82421875 72.52734375 C16.13037109 71.60888672 16.43652344 70.69042969 16.75195312 69.74414062 C18.16796875 65.49609375 19.58398438 61.24804688 21 57 C20.071875 56.70738281 19.14375 56.41476562 18.1875 56.11328125 C15 55 15 55 12 53.1875 C7.326514 50.38129847 2.14159522 48.81162089 -2.98828125 47.05078125 C-6 46 -6 46 -8 45 C-6.79640401 35.64069383 -4.86959578 26.5049577 -2.76489258 17.31225586 C-1.46472863 11.53818685 -0.53981234 5.89547859 0 0 Z " fill="#F9AB33" transform="translate(454,279)"/>
<path d="M0 0 C2.47698562 -0.00217131 4.95351356 -0.02033878 7.43041992 -0.03930664 C18.08290332 -0.07738463 28.40268357 0.66970853 38.9440918 2.18530273 C40.49277954 2.40440308 40.49277954 2.40440308 42.07275391 2.62792969 C62.01456531 5.60741958 81.26022044 10.60076089 99.9440918 18.18530273 C101.04366211 18.6300293 102.14323242 19.07475586 103.27612305 19.53295898 C106.17654564 20.725963 109.06196338 21.9488867 111.9440918 23.18530273 C113.00370117 23.62229492 113.00370117 23.62229492 114.0847168 24.06811523 C122.29997987 27.54862745 130.09202117 31.96627971 137.9440918 36.18530273 C137.9440918 36.51530273 137.9440918 36.84530273 137.9440918 37.18530273 C132.21137933 36.81171024 126.56981963 36.1571885 120.9050293 35.19360352 C71.81093176 26.91635554 20.08699955 27.08464098 -28.47924805 38.62475586 C-31.35368003 39.25008235 -34.23318816 39.72938147 -37.13793945 40.19311523 C-42.20204995 41.00950189 -47.10958996 42.08615764 -52.0559082 43.43530273 C-52.85714111 43.6507373 -53.65837402 43.86617187 -54.48388672 44.08813477 C-73.518078 49.26129331 -92.97343357 54.60341845 -110.8137207 63.13452148 C-113.51885347 64.40225792 -116.27778381 65.41956245 -119.08325195 66.43920898 C-124.69617435 68.56211627 -129.92580633 71.08024107 -135.0559082 74.18530273 C-136.07555664 74.61584961 -137.09520508 75.04639648 -138.14575195 75.48999023 C-151.82487106 81.28017811 -164.63953519 89.09366176 -177.0559082 97.18530273 C-177.66321777 97.5765332 -178.27052734 97.96776367 -178.89624023 98.37084961 C-196.59283888 109.78555933 -214.21359647 122.15883639 -229.0559082 137.18530273 C-229.7159082 136.85530273 -230.3759082 136.52530273 -231.0559082 136.18530273 C-226.74398306 128.55752026 -222.17985151 121.2887171 -217.0559082 114.18530273 C-216.27208253 113.07031155 -215.48961035 111.95436806 -214.70825195 110.83764648 C-196.88935385 85.46311795 -196.88935385 85.46311795 -190.0559082 83.18530273 C-189.35296068 81.87073551 -188.68993877 80.53446079 -188.0559082 79.18530273 C-183.60063146 74.01958997 -178.24204104 69.5939574 -173.0559082 65.18530273 C-172.12391602 64.38737305 -171.19192383 63.58944336 -170.23168945 62.76733398 C-164.06115197 57.54489445 -157.74787929 52.72513592 -151.0559082 48.18530273 C-149.32586868 46.95736491 -147.59669939 45.72820008 -145.8684082 44.49780273 C-142.6500295 42.24543817 -139.43320253 40.14164754 -135.98144531 38.26831055 C-133.80607251 37.04478401 -131.70010473 35.72776052 -129.5793457 34.41186523 C-123.9669447 31.03736565 -118.15005138 28.30165636 -112.1809082 25.62280273 C-111.18188477 25.16711914 -110.18286133 24.71143555 -109.15356445 24.24194336 C-97.97543755 19.17212193 -86.88265399 14.51104876 -75.0559082 11.18530273 C-74.26345703 10.95697754 -73.47100586 10.72865234 -72.65454102 10.4934082 C-57.29119336 6.10183676 -41.90155308 3.20905598 -26.0559082 1.18530273 C-24.90288208 1.02735229 -24.90288208 1.02735229 -23.7265625 0.86621094 C-15.84849755 -0.08606402 -7.92344737 -0.000774 0 0 Z " fill="#0F9671" transform="translate(291.055908203125,19.814697265625)"/>
<path d="M0 0 C0 0.33 0 0.66 0 1 C-1.41377782 1.36552803 -2.83120576 1.71695495 -4.25 2.0625 C-5.03890625 2.25972656 -5.8278125 2.45695312 -6.640625 2.66015625 C-9.10394822 3.01497267 -10.65604132 2.76877544 -13 2 C-8.47433587 -1.01710942 -5.23518729 -1.34619102 0 0 Z " fill="#409769" transform="translate(269,56)"/>
<path d="M0 0 C0.66 0.33 1.32 0.66 2 1 C1.07347299 2.17539996 0.13336613 3.34010577 -0.8125 4.5 C-1.33457031 5.1496875 -1.85664063 5.799375 -2.39453125 6.46875 C-4 8 -4 8 -7 8 C-5.61918777 3.8575633 -3.40174442 2.67796901 0 0 Z " fill="#249978" transform="translate(150,241)"/>
</svg>
